<?xml version="1.0" encoding="UTF-8"?>
<svg width="1200pt" height="1200pt" version="1.1" viewBox="0 0 1200 1200" xmlns="http://www.w3.org/2000/svg">
 <g>
  <path d="m434 24 460 266c22 14 22 46 0 60l-460 266c-22 14-52-4-52-30v-532c0-26 28-42 52-30z"/>
  <path d="m966 914c-2 0-4 0-6 2l-36 48c-2 2-2 4 0 6s2 2 6 2h18c6 0 12-2 16-6s6-10 6-16v-30c0-2-2-4-4-6z"/>
  <path d="m730 962c-4 0-8 2-10 2-4 2-8 4-10 6s-8 6-10 10-4 8-4 14v2c0 10 4 18 8 22s14 6 26 8c12 0 22-2 26-6 6-4 8-10 8-20 0-12-4-22-10-28-2-8-12-10-24-10z"/>
  <path d="m1156 1096-72-284c-4-18-22-32-40-34l-18-2 34-642c0-6-2-12-6-16s-10-6-16-6l-296 36 58 34 220-26-32 620-768-46-58-472 154-18v-40l-178 20c-6 0-10 4-14 8s-4 8-4 14l60 486-90-6c-30-2-54 26-46 56l98 368c6 20 24 34 44 34l928-28c28 0 50-28 42-56zm-776-26c0 2-2 4-4 4h-50c-2 0-4-2-4-4v-60c0-6-2-10-6-12-4-4-8-6-14-6h-62c-2 0-4 2-4 4v74c0 2-2 4-4 4h-48c-4 0-4-2-4-4v-226c0-2 0-4 4-4h50c2 0 4 2 4 4v78c0 4 2 8 4 12 4 4 8 4 12 4h66c2 0 4-2 4-4v-90c0-2 2-4 4-4h50c2 0 4 2 4 4v226zm146-48h60c4 0 6 2 6 6v40c0 4-2 6-6 6h-154c-2 0-2 0-4-2s-2-2-2-4v-30-2c2-2 2-6 4-10s4-8 8-10c4-4 10-8 14-10s10-4 16-8c12-6 22-12 28-18 8-6 14-12 18-16l12-12c6-6 10-12 14-22 2-6 4-10 4-16s-2-12-4-18-8-10-14-12-14-4-26-4h-16c-4 0-8 2-10 4s-6 4-8 6l-6 6c-2 2-2 2-4 2s-4-2-4-2l-20-30c-2-2-2-6 0-8 6-4 10-8 14-10s10-4 14-6 8-2 10-2 6-2 10-2h10 16c24 0 44 6 58 18 2 2 6 4 8 6l4 4c6 8 10 16 12 24s2 12 2 16c0 8 0 14-2 20s-2 10-4 14c-4 10-8 18-14 26s-12 14-18 20c-4 4-8 8-14 12s-12 10-18 14v6c2 4 4 4 6 4zm288-12c0 6-2 10-4 18-2 6-6 12-8 16l-8 8c-16 16-38 22-64 22-32 0-56-12-70-32s-22-48-22-82c0-38 8-68 26-88 8-10 16-16 26-22 8-4 16-8 24-8 8-2 14-2 18-2 14 0 26 0 38 4 10 4 20 6 26 10 2 2 4 4 2 6-4 6-6 12-8 18s-4 12-8 18c-2 2-2 4-6 2-2 0-6-2-10-2-4-2-8-4-12-8-4-2-6-4-10-4h-12c-2 0-6 0-10 2-4 0-10 2-14 6-2 2-4 2-4 4h-4c-4 4-6 8-8 12s-4 8-4 14c0 2 0 4 2 4 2 2 2 2 4 0 8-2 16-4 26-6h8 16 22c6 0 12 2 20 6l4 4c2 2 6 4 8 8 4 6 8 10 12 16 2 6 4 12 6 16 2 6 2 10 2 14v10c-2 6-2 10-4 16zm240 6c0 4-2 6-6 6h-6c-6 0-10 2-16 6-4 4-6 10-6 16v24c0 2 0 2-2 4s-2 2-4 2h-42c-4 0-6-2-6-6v-40c0-4-2-6-6-6h-96c-2 0-2 0-4-2s-2-2-2-4v-40c0-2 0-2 2-4l104-132c0-2 2-2 4-2h32c6 0 10 2 16 6s4 10 4 16v106c0 4 2 6 6 6h22c4 0 6 2 6 6z"/>
 </g>
</svg>
